<svg xmlns="http://www.w3.org/2000/svg" xmlns:xlink="http://www.w3.org/1999/xlink" width="140" zoomAndPan="magnify" viewBox="0 0 104.88 104.999996" height="140" preserveAspectRatio="xMidYMid meet" version="1.0"><defs><clipPath id="a132c9cddf"><path d="M 3.019531 76 L 12 76 L 12 87 L 3.019531 87 Z M 3.019531 76 " clip-rule="nonzero"/></clipPath><clipPath id="25013653dc"><path d="M 86 36 L 101.90625 36 L 101.90625 70 L 86 70 Z M 86 36 " clip-rule="nonzero"/></clipPath><clipPath id="39325b5d3b"><path d="M 58 88 L 71 88 L 71 95.523438 L 58 95.523438 Z M 58 88 " clip-rule="nonzero"/></clipPath><clipPath id="ef10022d7d"><path d="M 21 88 L 34 88 L 34 95.523438 L 21 95.523438 Z M 21 88 " clip-rule="nonzero"/></clipPath></defs><path fill="#2bb1bf" d="M 7.214844 80.28125 C 6.578125 80.28125 5.984375 79.816406 5.886719 79.152344 C 4.238281 69.761719 8.101562 58.75 20.464844 55.308594 C 21.203125 55.113281 21.941406 55.53125 22.140625 56.242188 C 22.335938 56.957031 21.917969 57.71875 21.203125 57.914062 C 9.726562 61.085938 7.214844 71.089844 8.570312 78.660156 C 8.695312 79.398438 8.203125 80.109375 7.464844 80.234375 C 7.363281 80.28125 7.289062 80.28125 7.214844 80.28125 Z M 7.214844 80.28125 " fill-opacity="1" fill-rule="nonzero"/><g clip-path="url(#a132c9cddf)"><path fill="#249fbc" d="M 11.082031 78.660156 C 10.246094 76.449219 8.324219 76.347656 6.332031 76.667969 C 4.902344 76.890625 3.324219 78.242188 3.179688 80.234375 C 3.03125 82.222656 3.425781 83.601562 3.992188 84.484375 C 4.53125 85.371094 5.320312 85.492188 5.8125 85.125 C 5.984375 85.371094 6.15625 85.566406 6.378906 85.714844 C 7.289062 86.328125 7.734375 85.835938 7.855469 85.519531 C 8.375 86.035156 8.941406 86.304688 9.382812 86.132812 C 10.246094 85.761719 8.890625 83.773438 8.644531 82.886719 C 8.398438 82.003906 8.570312 81.070312 9.0625 80.945312 C 9.554688 80.796875 9.777344 81.535156 10.023438 82.324219 C 10.246094 83.109375 11.304688 83.453125 11.773438 83.058594 C 12.167969 82.640625 11.921875 80.871094 11.082031 78.660156 Z M 11.082031 78.660156 " fill-opacity="1" fill-rule="nonzero"/></g><path fill="#2bb1bf" d="M 79.882812 65.78125 C 79.316406 65.78125 78.75 65.730469 78.160156 65.609375 C 70.917969 64.28125 70.179688 56.734375 70.796875 52.949219 C 70.917969 52.210938 71.609375 51.695312 72.347656 51.820312 C 73.085938 51.941406 73.578125 52.628906 73.480469 53.367188 C 73.429688 53.710938 72.226562 61.75 78.652344 62.929688 C 85.054688 64.109375 89.3125 55.382812 89.363281 55.285156 C 89.683594 54.597656 90.496094 54.324219 91.183594 54.644531 C 91.851562 54.964844 92.144531 55.777344 91.824219 56.464844 C 91.628906 56.90625 87.269531 65.78125 79.882812 65.78125 Z M 79.882812 65.78125 " fill-opacity="1" fill-rule="nonzero"/><g clip-path="url(#25013653dc)"><path fill="#fdd51a" d="M 92.246094 67.574219 L 95.394531 48.871094 C 98.351562 48.574219 100.886719 46.410156 101.503906 43.339844 C 101.898438 41.398438 101.429688 39.503906 100.394531 38.003906 L 99.015625 37.734375 L 98.082031 42.40625 L 94.410156 43.804688 L 91.457031 41.078125 L 92.390625 36.40625 L 91.011719 36.136719 C 89.460938 37.121094 88.304688 38.695312 87.910156 40.609375 C 87.292969 43.660156 88.796875 46.65625 91.40625 48.058594 L 87.023438 66.519531 C 86.679688 67.992188 87.589844 69.441406 89.09375 69.738281 C 90.570312 70.058594 92.023438 69.050781 92.246094 67.574219 Z M 89.535156 67.917969 C 89.066406 67.820312 88.746094 67.351562 88.847656 66.886719 C 88.945312 66.417969 89.414062 66.101562 89.878906 66.199219 C 90.347656 66.296875 90.667969 66.761719 90.570312 67.230469 C 90.472656 67.722656 90.027344 68.015625 89.535156 67.917969 Z M 89.535156 67.917969 " fill-opacity="1" fill-rule="nonzero"/></g><path fill="#249fbc" d="M 89.019531 58.160156 C 88.28125 57.59375 87.417969 56.5625 87.394531 55.53125 C 87.367188 53.710938 88.035156 51.304688 90.324219 50.171875 C 92.636719 49.042969 94.289062 49.902344 93.941406 50.886719 C 93.648438 51.722656 91.851562 51.5 90.371094 52.382812 Z M 89.019531 58.160156 " fill-opacity="1" fill-rule="nonzero"/><path fill="#249fbc" d="M 93.5 51.941406 C 92.5625 52.015625 91.40625 52.136719 91.285156 53.074219 C 91.160156 54.007812 92.492188 54.007812 93.597656 54.03125 C 94.707031 54.054688 95.914062 53.957031 95.789062 52.800781 C 95.667969 51.648438 94.117188 51.894531 93.5 51.941406 Z M 93.5 51.941406 " fill-opacity="1" fill-rule="nonzero"/><path fill="#249fbc" d="M 93.5 54.082031 C 92.515625 54.054688 91.285156 54.082031 91.0625 55.039062 C 90.839844 55.996094 92.21875 56.144531 93.375 56.269531 C 94.535156 56.390625 95.789062 56.414062 95.816406 55.1875 C 95.816406 53.980469 94.164062 54.105469 93.5 54.082031 Z M 93.5 54.082031 " fill-opacity="1" fill-rule="nonzero"/><path fill="#249fbc" d="M 93.277344 56.292969 C 92.390625 56.144531 91.257812 55.996094 90.9375 56.859375 C 90.617188 57.695312 91.851562 58.011719 92.882812 58.257812 C 93.917969 58.527344 95.050781 58.703125 95.222656 57.621094 C 95.394531 56.488281 93.871094 56.367188 93.277344 56.292969 Z M 93.277344 56.292969 " fill-opacity="1" fill-rule="nonzero"/><path fill="#2bb1bf" d="M 61.4375 91.171875 C 60.75 91.171875 60.160156 90.605469 60.160156 89.894531 L 60.160156 72.539062 C 60.160156 71.851562 60.726562 71.261719 61.4375 71.261719 C 62.128906 71.261719 62.71875 71.828125 62.71875 72.539062 L 62.71875 89.894531 C 62.695312 90.605469 62.128906 91.171875 61.4375 91.171875 Z M 61.4375 91.171875 " fill-opacity="1" fill-rule="nonzero"/><g clip-path="url(#39325b5d3b)"><path fill="#249fbc" d="M 60.085938 89.5 C 60.085938 89.5 58.632812 89.695312 58.433594 91.492188 C 58.238281 93.285156 58.3125 94.957031 58.804688 95.226562 C 59.296875 95.523438 60.75 95.449219 63.902344 95.449219 C 67.054688 95.449219 69.171875 95.449219 69.886719 95.449219 C 70.597656 95.449219 70.894531 93.824219 70.179688 92.425781 C 69.148438 90.382812 66.4375 90.1875 65.257812 90.136719 C 64.050781 90.089844 64.863281 88.6875 64 88.417969 C 63.582031 88.269531 63.164062 88.269531 62.941406 88.417969 C 62.671875 88.589844 62.671875 88.984375 62.671875 89.375 C 62.695312 90.015625 60.480469 90.484375 60.085938 89.5 Z M 60.085938 89.5 " fill-opacity="1" fill-rule="nonzero"/></g><path fill="#2bb1bf" d="M 30.90625 91.171875 C 30.214844 91.171875 29.625 90.605469 29.625 89.894531 L 29.625 72.539062 C 29.625 71.851562 30.191406 71.261719 30.90625 71.261719 C 31.59375 71.261719 32.1875 71.828125 32.1875 72.539062 L 32.1875 89.894531 C 32.160156 90.605469 31.59375 91.171875 30.90625 91.171875 Z M 30.90625 91.171875 " fill-opacity="1" fill-rule="nonzero"/><g clip-path="url(#ef10022d7d)"><path fill="#249fbc" d="M 32.234375 89.5 C 32.234375 89.5 33.6875 89.695312 33.886719 91.492188 C 34.082031 93.285156 34.007812 94.957031 33.515625 95.226562 C 33.023438 95.523438 31.570312 95.449219 28.417969 95.449219 C 25.265625 95.449219 23.148438 95.449219 22.433594 95.449219 C 21.71875 95.449219 21.425781 93.824219 22.140625 92.425781 C 23.171875 90.382812 25.882812 90.1875 27.0625 90.136719 C 28.269531 90.089844 27.457031 88.6875 28.320312 88.417969 C 28.738281 88.269531 29.15625 88.269531 29.378906 88.417969 C 29.648438 88.589844 29.648438 88.984375 29.648438 89.375 C 29.625 90.015625 31.867188 90.484375 32.234375 89.5 Z M 32.234375 89.5 " fill-opacity="1" fill-rule="nonzero"/></g><path fill="#39c1d8" d="M 42.183594 30.410156 C 42.183594 30.410156 42.871094 25.496094 50.875 24.976562 C 58.878906 24.460938 60.503906 30.410156 60.503906 30.410156 Z M 42.183594 30.410156 " fill-opacity="1" fill-rule="evenodd"/><path fill="#5eccfc" d="M 44.964844 29.304688 L 23.273438 30.484375 C 23.273438 30.484375 13.890625 30.582031 14.183594 41.226562 C 14.480469 51.867188 16.007812 70.203125 16.007812 70.203125 C 16.007812 70.203125 15.171875 78.683594 26.816406 78.167969 C 38.464844 77.652344 67.128906 76.667969 67.128906 76.667969 C 67.128906 76.667969 74.882812 77.726562 75.695312 66.34375 C 76.507812 54.964844 75.425781 38.9375 75.425781 38.9375 C 75.425781 38.9375 76.363281 29.625 65.257812 29.550781 C 54.152344 29.476562 44.964844 29.304688 44.964844 29.304688 Z M 44.964844 29.304688 " fill-opacity="1" fill-rule="evenodd"/><path fill="#ffffff" d="M 64.714844 64.921875 C 64.097656 68.066406 61.785156 70.574219 58.707031 71.507812 C 54.371094 72.785156 48.808594 73.941406 42.304688 74.0625 C 35.929688 74.1875 30.4375 73.324219 26.152344 72.246094 C 23.296875 71.53125 20.980469 69.394531 20.09375 66.589844 C 18.988281 63.148438 18.003906 58.75 17.804688 53.589844 C 17.632812 49.164062 18.101562 45.230469 18.765625 42.035156 C 19.429688 38.816406 21.894531 36.261719 25.117188 35.5 C 29.675781 34.417969 35.089844 33.484375 41.199219 33.164062 C 47.871094 32.820312 53.832031 33.238281 58.78125 33.972656 C 61.785156 34.417969 64.148438 36.679688 64.738281 39.652344 C 65.402344 43.117188 65.921875 47.171875 65.96875 51.722656 C 65.96875 56.734375 65.429688 61.183594 64.714844 64.921875 Z M 64.714844 64.921875 " fill-opacity="1" fill-rule="evenodd"/><path fill="#39c1d8" d="M 59.566406 70.230469 C 55.234375 71.507812 49.667969 72.664062 43.167969 72.785156 C 36.789062 72.910156 31.300781 72.046875 27.015625 70.964844 C 24.160156 70.253906 21.84375 68.117188 20.957031 65.3125 C 19.847656 61.871094 18.863281 57.472656 18.667969 52.3125 C 18.496094 47.886719 18.960938 43.953125 19.628906 40.757812 C 19.800781 39.921875 20.09375 39.160156 20.464844 38.449219 C 19.628906 39.480469 19.035156 40.710938 18.765625 42.035156 C 18.101562 45.257812 17.632812 49.164062 17.804688 53.589844 C 18.003906 58.726562 18.988281 63.148438 20.09375 66.589844 C 20.980469 69.394531 23.296875 71.53125 26.152344 72.246094 C 30.4375 73.300781 35.953125 74.1875 42.304688 74.0625 C 48.808594 73.941406 54.371094 72.785156 58.707031 71.507812 C 60.921875 70.84375 62.746094 69.34375 63.828125 67.378906 C 62.746094 68.707031 61.265625 69.714844 59.566406 70.230469 Z M 59.566406 70.230469 " fill-opacity="1" fill-rule="evenodd"/><path fill="#39c1d8" d="M 63.324219 11.316406 C 63.429688 11.574219 63.484375 11.84375 63.484375 12.125 C 63.484375 12.40625 63.429688 12.675781 63.324219 12.933594 C 63.214844 13.191406 63.0625 13.421875 62.863281 13.617188 C 62.664062 13.816406 62.4375 13.96875 62.175781 14.078125 C 61.917969 14.183594 61.648438 14.238281 61.367188 14.238281 C 61.085938 14.238281 60.816406 14.183594 60.554688 14.078125 C 60.296875 13.96875 60.066406 13.816406 59.867188 13.617188 C 59.671875 13.421875 59.515625 13.191406 59.410156 12.933594 C 59.300781 12.675781 59.25 12.40625 59.25 12.125 C 59.25 11.84375 59.300781 11.574219 59.410156 11.316406 C 59.515625 11.054688 59.671875 10.828125 59.867188 10.628906 C 60.066406 10.429688 60.296875 10.277344 60.554688 10.171875 C 60.816406 10.0625 61.085938 10.011719 61.367188 10.011719 C 61.648438 10.011719 61.917969 10.0625 62.175781 10.171875 C 62.4375 10.277344 62.664062 10.429688 62.863281 10.628906 C 63.0625 10.828125 63.214844 11.054688 63.324219 11.316406 Z M 63.324219 11.316406 " fill-opacity="1" fill-rule="nonzero"/><path fill="#39c1d8" d="M 41.667969 10.074219 C 41.941406 10.140625 42.191406 10.253906 42.421875 10.417969 C 42.648438 10.582031 42.835938 10.78125 42.984375 11.019531 C 43.132812 11.261719 43.226562 11.515625 43.273438 11.792969 C 43.316406 12.070312 43.308594 12.34375 43.242188 12.617188 C 43.179688 12.890625 43.066406 13.140625 42.902344 13.367188 C 42.738281 13.597656 42.535156 13.785156 42.296875 13.929688 C 42.058594 14.078125 41.800781 14.175781 41.523438 14.21875 C 41.246094 14.265625 40.96875 14.253906 40.695312 14.191406 C 40.421875 14.125 40.171875 14.011719 39.945312 13.847656 C 39.714844 13.683594 39.527344 13.480469 39.382812 13.242188 C 39.234375 13.003906 39.136719 12.746094 39.09375 12.472656 C 39.046875 12.195312 39.058594 11.917969 39.121094 11.648438 C 39.1875 11.375 39.300781 11.125 39.464844 10.894531 C 39.628906 10.667969 39.832031 10.480469 40.070312 10.335938 C 40.308594 10.1875 40.566406 10.089844 40.84375 10.046875 C 41.121094 10 41.394531 10.011719 41.667969 10.074219 Z M 41.667969 10.074219 " fill-opacity="1" fill-rule="nonzero"/><path fill="#249fbc" d="M 71.460938 38.300781 C 71.460938 39.136719 70.773438 39.824219 69.933594 39.824219 C 69.097656 39.824219 68.40625 39.136719 68.40625 38.300781 C 68.40625 37.464844 69.097656 36.777344 69.933594 36.777344 C 70.773438 36.777344 71.460938 37.464844 71.460938 38.300781 Z M 71.460938 38.300781 " fill-opacity="1" fill-rule="evenodd"/><path fill="#249fbc" d="M 72.027344 44.984375 C 72.027344 45.675781 71.460938 46.265625 70.746094 46.265625 C 70.058594 46.265625 69.464844 45.699219 69.464844 44.984375 C 69.464844 44.296875 70.03125 43.707031 70.746094 43.707031 C 71.460938 43.730469 72.027344 44.296875 72.027344 44.984375 Z M 72.027344 44.984375 " fill-opacity="1" fill-rule="evenodd"/><path fill="#249fbc" d="M 71.832031 51.230469 C 71.832031 51.820312 71.363281 52.285156 70.773438 52.285156 C 70.179688 52.285156 69.714844 51.820312 69.714844 51.230469 C 69.714844 50.640625 70.179688 50.171875 70.773438 50.171875 C 71.363281 50.171875 71.832031 50.640625 71.832031 51.230469 Z M 71.832031 51.230469 " fill-opacity="1" fill-rule="evenodd"/><path fill="#39c1d8" d="M 60.554688 12.515625 L 53.386719 26.648438 L 55.921875 27.511719 L 61.511719 12.785156 Z M 60.554688 12.515625 " fill-opacity="1" fill-rule="evenodd"/><path fill="#39c1d8" d="M 41.863281 12.515625 L 49.027344 26.648438 L 46.492188 27.511719 L 40.902344 12.785156 Z M 41.863281 12.515625 " fill-opacity="1" fill-rule="evenodd"/><path fill="#fdd51a" d="M 36.078125 56.980469 L 34.5 56.980469 L 34.5 59.757812 L 30.683594 59.757812 L 30.683594 56.980469 L 24.972656 56.980469 L 24.972656 54.128906 L 30.929688 45.429688 L 34.5 45.429688 L 34.5 54.082031 L 36.078125 54.082031 Z M 30.660156 54.105469 L 30.660156 52.433594 C 30.660156 52.113281 30.660156 51.695312 30.683594 51.15625 C 30.707031 50.613281 30.734375 50.34375 30.734375 50.320312 L 30.632812 50.320312 C 30.414062 50.8125 30.167969 51.304688 29.871094 51.722656 L 28.269531 54.082031 L 30.660156 54.082031 Z M 30.660156 54.105469 " fill-opacity="1" fill-rule="nonzero"/><path fill="#fdd51a" d="M 47.429688 52.605469 C 47.429688 55.136719 47.007812 57.003906 46.148438 58.183594 C 45.285156 59.363281 44.003906 59.953125 42.230469 59.953125 C 40.507812 59.953125 39.226562 59.339844 38.367188 58.113281 C 37.503906 56.882812 37.0625 55.039062 37.0625 52.628906 C 37.0625 50.074219 37.480469 48.207031 38.339844 47.027344 C 39.203125 45.847656 40.484375 45.230469 42.257812 45.230469 C 43.957031 45.230469 45.261719 45.847656 46.121094 47.101562 C 47.007812 48.328125 47.429688 50.171875 47.429688 52.605469 Z M 40.925781 52.605469 C 40.925781 54.226562 41.027344 55.332031 41.222656 55.949219 C 41.417969 56.5625 41.765625 56.859375 42.230469 56.859375 C 42.726562 56.859375 43.070312 56.539062 43.265625 55.925781 C 43.464844 55.285156 43.5625 54.203125 43.5625 52.605469 C 43.5625 51.007812 43.464844 49.902344 43.265625 49.261719 C 43.070312 48.625 42.726562 48.304688 42.257812 48.304688 C 41.789062 48.304688 41.445312 48.597656 41.246094 49.214844 C 41.027344 49.851562 40.925781 50.984375 40.925781 52.605469 Z M 40.925781 52.605469 " fill-opacity="1" fill-rule="nonzero"/><path fill="#fdd51a" d="M 59.617188 56.980469 L 58.042969 56.980469 L 58.042969 59.757812 L 54.222656 59.757812 L 54.222656 56.980469 L 48.511719 56.980469 L 48.511719 54.128906 L 54.46875 45.429688 L 58.042969 45.429688 L 58.042969 54.082031 L 59.617188 54.082031 Z M 54.199219 54.105469 L 54.199219 52.433594 C 54.199219 52.113281 54.199219 51.695312 54.222656 51.15625 C 54.25 50.613281 54.273438 50.34375 54.273438 50.320312 L 54.175781 50.320312 C 53.953125 50.8125 53.707031 51.304688 53.410156 51.722656 L 51.8125 54.082031 L 54.199219 54.082031 Z M 54.199219 54.105469 " fill-opacity="1" fill-rule="nonzero"/></svg>